2.6Hz3min_grf.mot
version=1
nRows=22
nColumns 19
inDegrees=yes
endheader
time	1_ground_force_vx	1_ground_force_vy	1_ground_force_vz	1_ground_force_px	1_ground_force_py	1_ground_force_pz	1_ground_torque_x	1_ground_torque_y	1_ground_torque_z	2_ground_force_vx	2_ground_force_vy	2_ground_force_vz	2_ground_force_px	2_ground_force_py	2_ground_force_pz	2_ground_torque_x	2_ground_torque_y	2_ground_torque_z
            0.005000	            6.298942	           95.299824	           14.837922	           -0.130496	            0.006015	           -0.352506	           -0.067360	           -1.019124	           -0.158675	            0.362670	            2.244942	           -9.471751	           -0.062759	            0.006078	           -0.647689	           -0.964767	            1.941242	            0.723663
            0.005500	            5.791145	          100.892288	           13.854306	           -0.127888	            0.006018	           -0.353132	           -0.048077	           -0.837589	           -0.115016	            0.454458	            2.797056	           -9.282108	           -0.062759	            0.006078	           -0.647689	           -0.964688	            1.903902	            0.591577
            0.006000	            4.775872	          105.949559	           11.539800	           -0.126141	            0.006022	           -0.353804	           -0.043548	           -0.966086	           -0.105224	            0.505878	            1.508856	           -9.474439	           -0.062759	            0.006078	           -0.647689	           -0.851790	            1.866094	            0.704495
            0.006500	            3.808463	          108.660632	            9.857115	           -0.127471	            0.006018	           -0.353022	           -0.040211	           -1.147264	           -0.104074	            0.268388	            2.428082	           -9.283342	           -0.062759	            0.006078	           -0.647689	           -1.020943	            1.884524	            0.666934
            0.007000	            3.712458	          112.993086	            8.454361	           -0.129397	            0.006016	           -0.352522	           -0.045926	           -1.397821	           -0.104588	            0.503864	            2.061468	           -9.519396	           -0.062759	            0.006078	           -0.647689	           -1.021088	            1.922402	            0.648219
            0.007500	            3.437785	          115.875710	            8.834258	           -0.125856	            0.006027	           -0.355144	           -0.044100	           -1.486465	           -0.113327	            0.220812	            2.612564	           -9.423449	           -0.062759	            0.006078	           -0.647689	           -0.964638	            1.894315	            0.629244
            0.008000	            3.623509	          118.574816	            9.991795	           -0.125255	            0.006025	           -0.354635	           -0.039572	           -1.294950	           -0.109120	            0.225464	            1.323525	           -9.428049	           -0.062759	            0.006078	           -0.647689	           -1.002234	            1.903564	            0.648144
            0.008500	            3.121194	          123.436976	           11.160314	           -0.129546	            0.006007	           -0.350645	           -0.024171	           -0.955901	           -0.086426	            0.501870	            2.613913	           -9.517425	           -0.062759	            0.006078	           -0.647689	           -1.021181	            1.941509	            0.591736
            0.009000	            2.660074	          126.324874	           10.302557	           -0.129913	            0.006012	           -0.351807	           -0.014790	           -0.702352	           -0.057281	            0.173215	            2.797212	           -9.610485	           -0.062759	            0.006078	           -0.647689	           -0.945836	            1.894248	            0.666936
            0.009500	            1.736642	          127.417301	            7.741539	           -0.127029	            0.006029	           -0.355512	           -0.011506	           -0.844169	           -0.051289	            0.173318	            2.796375	           -9.375844	           -0.062759	            0.006078	           -0.647689	           -1.021140	            1.941173	            0.685987
            0.010000	            1.179789	          129.411127	            5.183476	           -0.127454	            0.006027	           -0.355099	           -0.009866	           -1.082244	           -0.043349	            0.313059	            2.982203	           -9.703744	           -0.062759	            0.006078	           -0.647689	           -1.021054	            1.912949	            0.648185
            0.010500	            0.210865	          133.566488	            3.002560	           -0.129731	            0.006008	           -0.350815	           -0.002165	           -1.371656	           -0.030835	            0.596358	            2.429099	           -9.236554	           -0.062759	            0.006078	           -0.647689	           -0.908359	            1.922674	            0.685871
            0.011000	           -0.068001	          134.474055	            1.539718	           -0.127120	            0.006017	           -0.352719	            0.000839	           -1.658423	           -0.018989	            0.452382	            3.350170	           -9.467849	           -0.062759	            0.006078	           -0.647689	           -1.115137	            1.978107	            0.836963
            0.011500	           -0.298261	          136.458113	            1.273654	           -0.126705	            0.006022	           -0.353987	            0.003152	           -1.441982	           -0.013459	            1.467526	            7.591479	          -10.063240	           -0.062759	            0.006078	           -0.647689	           -1.529019	            2.201731	            1.328054
            0.012000	           -0.480854	          137.177567	            1.644048	           -0.126492	            0.006021	           -0.353624	            0.003748	           -1.069330	           -0.012816	            3.230234	           12.388274	          -10.750835	           -0.062759	            0.006078	           -0.647689	            0.022137	            0.084896	           -0.073675
            0.012500	           -0.803452	          140.243988	            1.199426	           -0.127618	            0.006018	           -0.352947	            0.004205	           -0.734066	           -0.006278	            4.621986	           16.079997	          -11.770710	           -0.087395	            0.006040	           -0.661812	            0.067060	            0.233304	           -0.170780
            0.013000	           -0.991955	          144.037199	           -0.572267	           -0.128297	            0.006018	           -0.353117	            0.005266	           -0.764723	            0.003038	            5.039441	           17.188083	          -12.236228	           -0.099492	            0.006011	           -0.665896	            0.074193	            0.253052	           -0.180148
            0.013500	           -1.181903	          146.391234	           -3.037983	           -0.127195	            0.006019	           -0.353286	            0.007557	           -0.936030	            0.019425	            4.514432	           19.945937	          -11.522232	           -0.100311	            0.006019	           -0.668936	            0.045462	            0.200861	           -0.116032
            0.014000	           -1.189895	          149.648796	           -6.004704	           -0.128455	            0.006015	           -0.352243	            0.010029	           -1.261303	            0.050610	            4.679645	           26.204309	          -10.561409	           -0.089613	            0.006109	           -0.683306	            0.007136	            0.039958	           -0.016105
            0.014500	           -1.745805	          151.460783	           -8.196693	           -0.127509	            0.006015	           -0.352275	            0.018764	           -1.627908	            0.088098	            5.262438	           33.569763	           -9.784536	           -0.085987	            0.006147	           -0.690377	            0.050589	            0.322713	           -0.094061
            0.015000	           -2.437391	          154.350799	           -9.558296	           -0.126079	            0.006020	           -0.353484	            0.024664	           -1.561877	            0.096720	            6.220845	           40.572458	          -10.182339	           -0.095056	            0.006124	           -0.693003	            0.100597	            0.656093	           -0.164658
            0.015500	           -2.712948	          159.577664	           -9.351774	           -0.127109	            0.006017	           -0.352837	            0.019399	           -1.141050	            0.066869	            7.365076	           47.946135	          -11.142045	           -0.102242	            0.006109	           -0.696200	            0.137725	            0.896577	           -0.208353
